{
  "accessors": [
    {
      "bufferView": 2,
      "componentType": 5126,
      "count": 51426,
      "max": [
        2.462421178817749,
        2.46401309967041,
        6.369846343994141
      ],
      "min": [
        -2.4653947353363037,
        -2.463803768157959,
        1.0245342254638672
      ],
      "type": "VEC3"
    },
    {
      "bufferView": 2,
      "byteOffset": 617112,
      "componentType": 5126,
      "count": 51426,
      "max": [
        0.9999738931655884,
        0.9999514818191528,
        1.0
      ],
      "min": [
        -0.9999673366546631,
        -0.9999978542327881,
        -1.0
      ],
      "type": "VEC3"
    },
    {
      "bufferView": 1,
      "componentType": 5126,
      "count": 51426,
      "max": [
        0.9141416549682617,
        0.9919325113296509
      ],
      "min": [
        0.048567235469818115,
        0.17374593019485474
      ],
      "type": "VEC2"
    },
    {
      "bufferView": 0,
      "componentType": 5125,
      "count": 155466,
      "type": "SCALAR"
    }
  ],
  "asset": {
    "extras": {
      "author": "AnixMoonLight (https://sketchfab.com/ani111)",
      "license": "CC-BY-4.0 (http://creativecommons.org/licenses/by/4.0/)",
      "source": "https://sketchfab.com/3d-models/kawaii-skeleton-cat-cup-c286ac7a17ac401d80880e120b7e9acb",
      "title": "Kawaii Skeleton Cat Cup"
    },
    "generator": "Sketchfab-14.70.0",
    "version": "2.0"
  },
  "bufferViews": [
    {
      "buffer": 0,
      "byteLength": 621864,
      "name": "floatBufferViews",
      "target": 34963
    },
    {
      "buffer": 0,
      "byteLength": 411408,
      "byteOffset": 621864,
      "byteStride": 8,
      "name": "floatBufferViews",
      "target": 34962
    },
    {
      "buffer": 0,
      "byteLength": 1234224,
      "byteOffset": 1033272,
      "byteStride": 12,
      "name": "floatBufferViews",
      "target": 34962
    }
  ],
  "buffers": [
    {
      "byteLength": 2267496,
      "uri": "scene.bin"
    }
  ],
  "extensionsUsed": [
    "KHR_materials_unlit"
  ],
  "images": [
    {
      "uri": "textures/SkCatGl_baseColor.jpeg"
    }
  ],
  "materials": [
    {
      "extensions": {
        "KHR_materials_unlit": {}
      },
      "name": "SkCatGl",
      "pbrMetallicRoughness": {
        "baseColorTexture": {
          "index": 0
        },
        "metallicFactor": 0.0
      }
    }
  ],
  "meshes": [
    {
      "name": "SkCatGl_SkCatGl_0",
      "primitives": [
        {
          "attributes": {
            "NORMAL": 1,
            "POSITION": 0,
            "TEXCOORD_0": 2
          },
          "indices": 3,
          "material": 0,
          "mode": 4
        }
      ]
    }
  ],
  "nodes": [
    {
      "children": [
        1
      ],
      "matrix": [
        1.0,
        0.0,
        0.0,
        0.0,
        0.0,
        2.220446049250313e-16,
        -1.0,
        0.0,
        0.0,
        1.0,
        2.220446049250313e-16,
        0.0,
        0.0,
        0.0,
        0.0,
        1.0
      ],
      "name": "Sketchfab_model"
    },
    {
      "children": [
        2
      ],
      "matrix": [
        0.009999999776482582,
        0.0,
        0.0,
        0.0,
        0.0,
        0.0,
        0.009999999776482582,
        0.0,
        0.0,
        -0.009999999776482582,
        0.0,
        0.0,
        0.0,
        0.0,
        0.0,
        1.0
      ],
      "name": "a37ad86baa234b868cf59743009c987f.fbx"
    },
    {
      "children": [
        3
      ],
      "name": "RootNode"
    },
    {
      "children": [
        4
      ],
      "matrix": [
        89.76346554400982,
        -2.775557773321128e-15,
        44.07404882023349,
        0.0,
        44.0740488202329,
        -1.6292069182169283e-05,
        -89.76346554400864,
        0.0,
        7.1805734302987645e-06,
        99.99999999999866,
        -1.4624323663170458e-05,
        0.0,
        -0.01983068697154522,
        0.0,
        0.06446919590234756,
        1.0
      ],
      "name": "SkCatGl"
    },
    {
      "mesh": 0,
      "name": "SkCatGl_SkCatGl_0"
    }
  ],
  "samplers": [
    {
      "magFilter": 9729,
      "minFilter": 9987,
      "wrapS": 10497,
      "wrapT": 10497
    }
  ],
  "scene": 0,
  "scenes": [
    {
      "name": "Sketchfab_Scene",
      "nodes": [
        0
      ]
    }
  ],
  "textures": [
    {
      "sampler": 0,
      "source": 0
    }
  ]
}
